#!OML:ASF G:\JayActor3\Patient Classification 1\Patient 1\Session 2\male.ASF
:FULLY-SPECIFIED
:DEGREES
2561
root -35.9884 16.9765 -4.55508 358.348 -174.289 -720.256
lowerback 5.72213 1.69162 0.121394
upperback -1.48158 2.22516 -0.78559
thorax -4.70675 1.0851 -1.09633
lowerneck -0.145873 -6.97854 -9.50109
upperneck 4.88727 -11.0012 17.5953
head 2.96862 -5.59563 6.52759
rclavicle -1.4474e-015 5.96354e-015
rhumerus -23.1483 31.7032 -82.661
rradius 126.65
rwrist -31.1646
rhand -40.867 24.08
rfingers 7.12502
rthumb -13.8035 -5.44207
lclavicle -1.4474e-015 5.96354e-015
lhumerus -40.0112 -68.2921 123.292
lradius 89.4944
lwrist 38.7597
lhand -18.5433 14.1096
lfingers 7.12502
lthumb 7.746 43.9477
rfemur -12.8484 5.24323 21.956
rtibia 47.8312
rfoot -14.123 -8.81648
rtoes 6.82035
lfemur -5.45248 -4.05405 -16.4612
ltibia 29.8483
lfoot -7.26567 9.83669
ltoes -23.4196
2562
root -36.0384 16.9797 -4.55156 358.408 -177.634 -720.12
lowerback 5.65253 1.75905 0.086402
upperback -1.44006 2.31077 -0.81834
thorax -4.62258 1.12841 -1.11525
lowerneck -0.0898307 -7.24092 -9.48682
upperneck 5.01038 -11.411 17.481
head 3.04487 -5.8094 6.46136
rclavicle -3.3048e-015 -9.54166e-015
rhumerus -23.1329 31.6847 -82.606
rradius 126.671
rwrist -31.1694
rhand -41.1418 24.2983
rfingers 7.12502
rthumb -14.0683 -5.20553
lclavicle -3.3048e-015 -9.54166e-015
lhumerus -40.1335 -68.2804 123.388
lradius 89.5221
lwrist 38.6797
lhand -18.7139 14.0469
lfingers 7.12502
lthumb 7.58128 43.891
rfemur -12.959 5.21591 22.1735
rtibia 47.3936
rfoot -14.4966 -9.3098
rtoes 6.42428
lfemur -5.0218 -4.80408 -16.387
ltibia 30.0852
lfoot -7.11666 10.0138
ltoes -24.04
2563
root -36.0889 16.9827 -4.55096 358.479 -180.964 -719.947
lowerback 5.56263 1.80224 0.0894753
upperback -1.4086 2.38272 -0.82549
thorax -4.53724 1.17016 -1.12744
lowerneck 0.044923 -7.47129 -9.54836
upperneck 5.07522 -11.7773 17.4164
head 3.09147 -6.00791 6.43
rclavicle -1.19022e-014 -6.95746e-015
rhumerus -23.1475 31.7245 -82.5571
rradius 126.704
rwrist -31.1629
rhand -41.3716 24.3725
rfingers 7.12502
rthumb -14.2898 -5.1158
lclavicle -1.19022e-014 -6.95746e-015
lhumerus -40.2079 -68.2092 123.46
lradius 89.5562
lwrist 38.5796
lhand -18.8534 13.9759
lfingers 7.12502
lthumb 7.44666 43.8248
rfemur -13.0367 5.18845 22.4349
rtibia 46.9088
rfoot -14.9952 -9.695
rtoes 7.00277
lfemur -4.58528 -5.51926 -16.2922
ltibia 30.3229
lfoot -7.03013 10.1124
ltoes -24.3744
2564
root -36.1378 16.9851 -4.55326 358.562 -184.287 -719.741
lowerback 5.46161 1.84407 0.103603
upperback -1.38496 2.44029 -0.803375
thorax -4.45479 1.19899 -1.11333
lowerneck 0.245585 -7.67017 -9.67249
upperneck 5.08135 -12.0999 17.3946
head 3.10993 -6.19027 6.42901
rclavicle -2.72459e-014 4.37326e-015
rhumerus -23.1767 31.8121 -82.5112
rradius 126.75
rwrist -31.1593
rhand -41.4916 24.2888
rfingers 7.12502
rthumb -14.4054 -5.19132
lclavicle -2.72459e-014 4.37326e-015
lhumerus -40.2328 -68.0643 123.51
lradius 89.5909
lwrist 38.4625
lhand -19.0208 13.8873
lfingers 7.12502
lthumb 7.28504 43.7419
rfemur -13.091 5.12948 22.7344
rtibia 46.3869
rfoot -15.518 -9.98543
rtoes 7.90287
lfemur -4.13487 -6.13224 -16.1839
ltibia 30.5443
lfoot -6.92546 10.1617
ltoes -24.8753
2565
root -36.186 16.9872 -4.55753 358.661 -187.587 -719.513
lowerback 5.35557 1.86308 0.135708
upperback -1.364 2.46899 -0.766819
thorax -4.37272 1.21315 -1.09148
lowerneck 0.501478 -8.79672 -9.87469
upperneck 5.33986 -12.148 17.3161
head 3.18385 -5.63715 6.46133
rclavicle -1.70955e-014 -6.75868e-015
rhumerus -23.1911 31.9442 -82.4917
rradius 126.788
rwrist -31.126
rhand -41.5108 24.0763
rfingers 7.12502
rthumb -14.4239 -5.40244
lclavicle -1.70955e-014 -6.75868e-015
lhumerus -40.1634 -67.8326 123.463
lradius 89.6145
lwrist 38.3023
lhand -19.0992 13.7763
lfingers 7.12502
lthumb 7.20944 43.6335
rfemur -13.1225 5.07174 23.0577
rtibia 45.8324
rfoot -16.0755 -10.1584
rtoes 9.28448
lfemur -3.67647 -6.65313 -16.0781
ltibia 30.7443
lfoot -6.79353 10.1698
ltoes -25.5315
2566
root -36.2336 16.989 -4.56295 358.782 -190.872 -719.298
lowerback 5.2408 1.87197 0.160955
upperback -1.34337 2.48355 -0.736377
thorax -4.28637 1.22051 -1.07047
lowerneck 0.760028 -8.92088 -10.0854
upperneck 5.27171 -12.3518 17.3802
head 3.16608 -5.7664 6.51301
rclavicle -1.59649e-014 -1.59028e-015
rhumerus -23.1758 32.0767 -82.4924
rradius 126.812
rwrist -31.0697
rhand -41.4217 23.7846
rfingers 7.12502
rthumb -14.338 -5.7003
lclavicle -1.59649e-014 -1.59028e-015
lhumerus -40.0423 -67.5567 123.364
lradius 89.6281
lwrist 38.1413
lhand -19.1328 13.665
lfingers 7.12502
lthumb 7.17695 43.5233
rfemur -13.1458 5.0166 23.3573
rtibia 45.25
rfoot -16.6244 -10.193
rtoes 10.7417
lfemur -3.22239 -7.08496 -16.0216
ltibia 30.9259
lfoot -6.62851 10.1463
ltoes -26.2652
2567
root -36.2794 16.9908 -4.56956 358.918 -194.141 -719.078
lowerback 5.12753 1.87889 0.186093
upperback -1.31698 2.49522 -0.71189
thorax -4.19473 1.22646 -1.0552
lowerneck 1.02435 -9.02463 -10.3098
upperneck 5.15897 -12.5249 17.493
head 3.13463 -5.88051 6.58538
rclavicle -5.1771e-014 1.59028e-015
rhumerus -23.1286 32.1745 -82.5302
rradius 126.807
rwrist -30.967
rhand -41.3114 23.5239
rfingers 7.12502
rthumb -14.2317 -5.96851
lclavicle -5.1771e-014 1.59028e-015
lhumerus -39.8916 -67.2665 123.235
lradius 89.6268
lwrist 37.9781
lhand -19.1097 13.5579
lfingers 7.12502
lthumb 7.19925 43.4154
rfemur -13.1434 4.98615 23.658
rtibia 44.635
rfoot -17.0973 -10.0639
rtoes 12.2681
lfemur -2.77126 -7.44727 -15.9934
ltibia 31.1019
lfoot -6.44566 10.098
ltoes -26.9639
2568
root -36.3233 16.9924 -4.57653 359.078 -197.392 -718.864
lowerback 5.00805 1.88727 0.187287
upperback -1.28708 2.50722 -0.689529
thorax -4.09691 1.23324 -1.02842
lowerneck 1.27463 -9.10531 -10.55
upperneck 5.02001 -12.6649 17.632
head 3.0965 -5.9779 6.67085
rclavicle 9.88954e-015 -1.31198e-014
rhumerus -23.0629 32.2379 -82.5829
rradius 126.789
rwrist -30.8381
rhand -41.2569 23.3695
rfingers 7.12502
rthumb -14.1791 -6.12655
lclavicle 9.88954e-015 -1.31198e-014
lhumerus -39.7115 -66.9718 123.088
lradius 89.6163
lwrist 37.857
lhand -19.1289 13.4768
lfingers 7.12502
lthumb 7.18071 43.335
rfemur -13.1282 4.98739 23.9409
rtibia 43.9873
rfoot -17.4601 -9.80781
rtoes 13.6112
lfemur -2.34822 -7.73019 -16.0036
ltibia 31.2853
lfoot -6.25475 10.0326
ltoes -27.5844
2569
root -36.3652 16.9939 -4.58382 359.266 -200.616 -718.659
lowerback 4.87906 1.9097 0.166919
upperback -1.25439 2.53621 -0.68214
thorax -3.99085 1.24894 -1.00594
lowerneck 1.49978 -9.18882 -10.7512
upperneck 4.85108 -12.8035 17.7759
head 3.05213 -6.0728 6.75095
rclavicle -1.49089e-015 -7.15625e-015
rhumerus -23.0015 32.2255 -82.6562
rradius 126.769
rwrist -30.6912
rhand -41.285 23.282
rfingers 7.12502
rthumb -14.2063 -6.21221
lclavicle -1.49089e-015 -7.15625e-015
lhumerus -39.5603 -66.7351 122.981
lradius 89.5984
lwrist 37.7726
lhand -19.1932 13.4218
lfingers 7.12502
lthumb 7.1187 43.2821
rfemur -13.1017 5.03839 24.197
rtibia 43.3064
rfoot -17.7062 -9.44894
rtoes 14.7785
lfemur -1.96789 -7.93555 -16.0504
ltibia 31.4838
lfoot -6.07255 9.94382
ltoes -28.0388
2570
root -36.405 16.9952 -4.59141 359.49 -203.798 -718.455
lowerback 4.73696 1.94484 0.110281
upperback -1.22494 2.58023 -0.668977
thorax -3.88247 1.27303 -0.957911
lowerneck 1.69416 -9.27903 -10.9582
upperneck 4.67463 -12.9495 17.9248
head 3.01324 -6.16998 6.83165
rclavicle 1.87852e-014 -1.31198e-014
rhumerus -22.9717 32.1665 -82.7106
rradius 126.777
rwrist -30.5898
rhand -41.409 23.2896
rfingers 7.12502
rthumb -14.3257 -6.19615
lclavicle 1.87852e-014 -1.31198e-014
lhumerus -39.4404 -66.5482 122.939
lradius 89.5792
lwrist 37.7156
lhand -19.3394 13.4046
lfingers 7.12502
lthumb 6.97756 43.2696
rfemur -13.0724 5.1361 24.4333
rtibia 42.5986
rfoot -17.79 -9.04528
rtoes 15.502
lfemur -1.64311 -8.05874 -16.1163
ltibia 31.7005
lfoot -5.91606 9.81739
ltoes -28.2877
